<svg id="Layer_1" data-name="Layer 1" xmlns="http://www.w3.org/2000/svg" viewBox="0 0 219.48 214.62"><defs><style>.cls-1{fill:#0f5454;}</style></defs><path class="cls-1" d="M109.74,0A109.76,109.76,0,0,0,77,214.51c0-6.31,0-12.62-.22-18.92-.34-7.86,1.64-13.83,11.49-15.38C83,170.28,78.27,161,73,151.93a150.53,150.53,0,0,0-9.09-13.47c-1.9-2.59-1.76-4.34,0-7,13.84-20.68,24.73-42.77,30.69-67a179.38,179.38,0,0,0,3.58-19c.51-3.81,2-5.17,6.33-3.76v5.14q0,36.36,0,72.72c0,3-.46,5.24-2.93,7.51a11.23,11.23,0,0,0,.13,16.36,11.09,11.09,0,0,0,15.9-.26c4.68-4.87,4.36-11.89-.55-16.81-1.17-1.17-2.36-3-2.37-4.52-.14-26.11-.1-52.21-.08-78.31a11.53,11.53,0,0,1,.33-2c3.18-1,5.31-.69,5.81,3.2,4.29,33.16,17.88,62.59,36.14,89.42L130.35,180c10.79,2,12.27,8.51,11.9,16.56-.28,6-.17,12-.12,18A109.76,109.76,0,0,0,109.74,0Z"/></svg>