<svg xmlns="http://www.w3.org/2000/svg" width="201" height="39" viewBox="0 0 201 39" fill="none"><g clip-path="url(#clip0_3226_2233)"><path d="M29.6516 0.163086L20.7001 9.08137L11.7487 0.163086C4.73771 3.4061 0.105469 10.4534 0.105469 18.4362C0.105469 29.7867 9.18215 38.8298 20.575 38.8298C31.9678 38.8298 41.1696 29.7867 41.1696 18.4362C41.1696 10.4534 36.3496 3.4061 29.6516 0.163086Z" fill="#2CE080"></path><path d="M26.083 14.4445L20.5744 9.08105L15.191 14.4445C12.1863 17.438 12.1863 22.3026 15.191 25.2961C18.1957 28.2897 23.0783 28.2897 26.083 25.2961C29.0877 22.3026 29.0877 17.438 26.083 14.4445Z" fill="#03314B"></path><path d="M65.9581 24.9844C65.9581 23.3629 64.7688 22.4274 63.1412 22.4274H57.4448V27.3543H63.1412C64.894 27.3543 65.9581 26.6059 65.9581 24.9844ZM57.4448 11.6382V16.5651H60.1365C61.9519 16.5651 62.9535 15.5049 62.9535 14.0081C62.9535 12.5113 61.8893 11.4511 60.1365 11.4511H57.4448V11.6382ZM73.2195 25.2963C73.2195 30.2231 69.0254 33.778 63.5168 33.778H50.2461V5.52637H60.5747C66.0833 5.52637 70.2774 8.76938 70.2774 13.8834C70.2774 15.8167 69.6514 17.4382 68.4621 18.6231C71.4667 19.621 73.2195 21.8662 73.2195 25.2963Z" fill="#002F54"></path><path d="M76.8516 33.6533H84.3007V1.47266H76.8516V33.6533Z" fill="#03314B"></path><path d="M89.0559 33.6534H96.505V12.1997H89.0559V33.6534ZM97.444 4.65342C97.444 7.02332 95.3782 8.95665 92.8117 8.95665C90.2452 8.95665 88.3047 7.02332 88.3047 4.65342C88.3047 2.09643 90.3704 0.350197 92.8117 0.350197C95.3156 0.287832 97.444 2.09643 97.444 4.65342Z" fill="#002F54"></path><path d="M122.482 20.3691V33.5907H115.033V21.4294C115.033 19.496 113.719 18.3111 111.903 18.3111C110.088 18.3111 108.773 19.496 108.773 21.4294V33.653H101.324V12.1993H108.022V14.0079C109.525 12.6982 111.59 11.7627 114.157 11.7627C119.352 11.7627 122.482 15.1928 122.482 20.3691Z" fill="#03314B"></path><path d="M142.391 33.6533L134.629 22.3651V33.6533H127.18V1.47266H134.629V20.806L141.327 12.1995H149.965L142.516 21.7415L150.403 33.6533H142.391Z" fill="#03314B"></path><path d="M152.97 33.6534H160.419V12.1997H152.97V33.6534ZM161.171 4.65342C161.171 7.02332 159.105 8.95665 156.538 8.95665C153.972 8.95665 152.031 7.02332 152.031 4.65342C152.031 2.09643 154.097 0.350197 156.538 0.350197C159.105 0.287832 161.171 2.09643 161.171 4.65342Z" fill="#002F54"></path><path d="M181.2 14.8817L177.757 19.372C176.255 18.1871 174.752 17.5634 173.125 17.5634C172.248 17.5634 171.622 17.6881 171.622 18.3118C171.622 18.9354 172.061 19.0602 173.125 19.4967L175.191 20.3699C179.072 21.8666 181.45 23.4881 181.45 27.043C181.45 31.5333 177.694 34.1526 172.499 34.1526C168.618 34.1526 165.175 32.6559 163.234 29.9742L166.677 25.6709C168.493 27.4795 170.558 28.3527 172.624 28.3527C173.688 28.3527 174.565 28.2279 174.565 27.4795C174.565 27.043 174.126 26.7311 173.375 26.4193L170.996 25.3591C167.115 23.7376 164.737 22.1161 164.737 18.4989C164.737 14.1957 168.18 11.6387 173.125 11.6387C176.255 11.6387 179.072 12.6365 181.2 14.8817Z" fill="#03314B"></path><path d="M200.105 27.5417V33.7783C198.916 34.0901 197.413 34.2148 195.786 34.2148C189.839 34.2148 186.208 31.4084 186.208 25.4213V18.3116H182.953V12.1998H186.208V7.02344H193.657V12.1998H199.479V18.4363H193.657V24.86C193.657 26.9181 194.722 27.6664 197.413 27.6664C198.039 27.5417 198.916 27.5417 200.105 27.5417Z" fill="#03314B"></path></g><defs><clipPath id="clip0_3226_2233"><rect width="200" height="38.6667" fill="white" transform="translate(0.105469 0.163086)"></rect></clipPath></defs></svg>