<svg xmlns="http://www.w3.org/2000/svg" width="200" height="51" viewBox="0 0 200 51" fill="none"><g clip-path="url(#clip0_3226_2229)"><path fill-rule="evenodd" clip-rule="evenodd" d="M53.1683 40.6642C56.8102 40.6642 60.0284 38.8768 60.6298 34.6208L57.8004 34.0128C57.3417 36.7291 55.7501 37.9465 53.2746 37.9465C50.3753 37.9465 48.1837 36.2998 48.1837 30.8292C48.1837 25.6078 50.7641 24.1764 53.3809 24.1764C55.9263 24.1764 57.1641 25.5712 57.448 28.2903L60.5249 27.861C60.276 23.605 57.5879 21.4587 53.5221 21.4587C48.0774 21.4587 44.8242 24.821 44.8242 31.2219C44.8242 36.7305 47.1585 40.6642 53.1683 40.6642ZM77.5361 27.7541C77.5361 23.605 75.8382 21.4587 71.9837 21.4587C69.4382 21.4587 67.3529 22.5312 65.5837 23.9259V13.2324H62.4018V40.2349H65.6186V26.5381C66.5739 25.6795 68.8368 24.32 70.9235 24.32C73.399 24.32 74.3179 25.7147 74.3179 28.2537V40.2349H77.5347L77.5361 27.7541ZM93.3291 27.7892C93.3291 23.2109 91.3151 21.4587 86.8228 21.4587C82.6158 21.4587 80.4228 23.0688 79.8578 26.5015L82.6858 27.0377C83.076 24.9998 84.0298 23.9977 86.5403 23.9977C89.5109 23.9977 90.1473 25.429 90.1473 27.7541V29.5415C89.6522 29.5063 89.1221 29.4711 88.5557 29.4711C83.4284 29.4711 79.1501 30.8292 79.1501 35.7284C79.1501 37.5158 79.9277 40.6642 84.5249 40.6642C87.0704 40.6642 88.9445 39.8423 90.3599 38.4123C90.5361 39.5918 91.3487 40.5938 93.1529 40.5938C94.0368 40.5938 94.9571 40.3785 95.6634 40.021L95.5221 37.9817C95.062 38.1252 94.7431 38.197 94.4256 38.197C93.5067 38.197 93.3291 37.7678 93.3291 36.7657V27.7892ZM90.1823 36.0507C89.1921 37.1232 87.3893 38.1252 85.5151 38.1252C83.0396 38.1252 82.4746 36.7657 82.4746 35.1922C82.4746 32.0452 85.8326 31.7947 88.3431 31.7947C89.0144 31.7947 89.6872 31.8299 90.1823 31.9017V36.0507ZM100.682 26.5015C101.635 25.6078 103.863 24.32 105.703 24.32C108.035 24.32 108.531 25.7147 108.531 28.1819V40.2349H111.747V27.7175C111.747 27.253 111.714 26.7886 111.677 26.3579C112.739 25.4642 114.824 24.32 116.558 24.32C118.891 24.32 119.386 25.7147 119.386 28.1819V40.2349H122.603V27.7175C122.603 23.605 121.261 21.4587 117.442 21.4587C114.967 21.4587 112.915 22.5678 111.149 23.9977C110.44 22.2806 108.991 21.4587 106.586 21.4587C104.111 21.4587 102.202 22.5312 100.398 23.9259L100.221 21.8528H97.4634V40.2349H100.68L100.682 26.5015ZM133.124 40.6642C136.765 40.6642 139.593 38.912 140.336 35.3358L137.508 34.6912C137.013 36.7657 135.81 37.9465 133.228 37.9465C130.329 37.9465 128.279 36.48 128.138 31.7961H140.372C140.477 30.9376 140.512 30.1143 140.512 29.3979C140.512 24.8562 138.392 21.4601 133.3 21.4601C128.633 21.4601 124.743 24.3552 124.743 31.0798C124.743 36.1225 126.687 40.6642 133.124 40.6642ZM128.172 29.2192C128.35 25.5712 130.683 24.1061 133.087 24.1061C135.951 24.1061 137.189 25.9301 137.189 29.2192H128.172ZM145.82 13.2324H142.603V40.2349H145.82V13.2324ZM156.445 40.6642C160.087 40.6642 162.917 38.912 163.659 35.3358L160.83 34.6912C160.335 36.7657 159.133 37.9465 156.551 37.9465C153.652 37.9465 151.6 36.48 151.461 31.7961H163.694C163.8 30.9376 163.835 30.1143 163.835 29.3979C163.835 24.8562 161.714 21.4601 156.623 21.4601C151.954 21.4601 148.065 24.3552 148.065 31.0798C148.065 36.1225 150.009 40.6642 156.445 40.6642ZM151.494 29.2192C151.672 25.5712 154.006 24.1061 156.41 24.1061C159.275 24.1061 160.512 25.9301 160.512 29.2192H151.496H151.494ZM173.91 40.6642C180.027 40.6642 182.503 36.7305 182.503 30.6857C182.503 25.2137 180.133 21.4587 174.37 21.4587C168.571 21.4587 165.531 25.1785 165.531 31.1149C165.531 36.5518 167.616 40.6642 173.91 40.6642ZM174.087 38.0535C170.551 38.0535 168.854 35.8368 168.854 30.9728C168.854 26.0722 171.01 24.1412 174.228 24.1412C177.375 24.1412 179.143 25.8217 179.143 30.901C179.143 36.1225 177.234 38.0535 174.087 38.0535ZM199.654 27.7541C199.654 23.605 197.957 21.4587 194.068 21.4587C191.557 21.4587 189.294 22.6029 187.526 24.0343L187.349 21.8528H184.521V40.2349H187.738V26.5381C188.693 25.6795 190.956 24.32 193.042 24.32C195.518 24.32 196.437 25.7147 196.437 28.2537V40.2349H199.654V27.7541Z" fill="#4B696B"></path><path fill-rule="evenodd" clip-rule="evenodd" d="M21.647 30.0847C39.5547 21.5516 31.2036 0 31.2036 0C-4.99216 0 0.266578 31.5696 0.266578 31.5696C0.266578 31.5696 19.9505 31.5766 19.9519 31.5752C23.233 33.2964 26.9043 39.1597 22.8904 44.3826C20.7883 47.1186 16.7505 47.3016 14.1743 45.0272C13.1281 44.1039 10.9952 40.8782 13.4176 37.5454C15.2918 34.967 18.7379 36.0395 19.7994 37.133C20.2386 37.5834 20.3239 38.2759 19.9141 38.7544C19.8182 38.8685 19.7006 38.9623 19.5682 39.0302C19.4359 39.0981 19.2914 39.1388 19.1433 39.15C18.9951 39.1611 18.8462 39.1425 18.7053 39.0951C18.5644 39.0477 18.4343 38.9725 18.3225 38.874C17.8987 38.4968 16.468 37.879 15.3547 39.0907C14.8232 39.672 13.9939 41.5903 15.6484 43.2848C17.1757 44.8499 19.8078 44.5796 21.1855 42.8767C23.7687 39.6889 21.7057 36.3379 20.6582 35.4118C17.8358 32.9221 13.7057 33.3781 11.1141 36.1155C8.83021 38.5222 9.19805 42.0224 9.4428 43.0582C10.7351 48.5527 16.3057 51.9727 21.5617 50.1938C30.8876 47.0313 34.3827 34.4519 30.9127 25.2123C29.8068 26.6466 28.4067 27.8242 26.8077 28.6651C25.2088 29.5059 23.4486 29.9901 21.647 30.0847ZM9.78686 23.4277C6.91973 19.3448 7.80084 13.6392 11.7547 10.6794C15.7057 7.72104 21.233 8.63022 24.0987 12.7117C26.9645 16.7932 26.0834 22.4988 22.1309 25.4572C18.1785 28.417 12.6512 27.5078 9.78686 23.4277ZM13.6806 21.8022C14.3966 22.8014 15.7785 23.0252 16.7659 22.3004C17.2407 21.9507 17.5589 21.4264 17.6511 20.8416C17.7433 20.2569 17.6021 19.6591 17.2582 19.1787C17.0887 18.9412 16.8742 18.7398 16.627 18.5861C16.3798 18.4324 16.1048 18.3294 15.8179 18.2831C15.531 18.2368 15.2378 18.2481 14.9552 18.3163C14.6727 18.3845 14.4063 18.5083 14.1715 18.6805C13.6966 19.0302 13.3784 19.5546 13.2865 20.1395C13.1945 20.7243 13.3362 21.322 13.6806 21.8022Z" fill="#94C952"></path></g><defs><clipPath id="clip0_3226_2229"><rect width="200" height="50.6667" fill="white"></rect></clipPath></defs></svg>