<svg xmlns="http://www.w3.org/2000/svg" width="201" height="70" viewBox="0 0 201 70" fill="none"><g clip-path="url(#clip0_3226_2261)"><path d="M199.07 65.5203C198.844 66.2518 197.689 66.5202 197.087 66.5244C188.849 66.5699 180.606 66.6277 172.367 66.7022C166.808 66.7516 161.249 66.8097 155.695 66.8676C131.118 67.1442 106.541 67.5453 81.9557 68.0701C62.2846 68.4917 42.6016 68.9959 22.9105 69.5785C23.0579 69.4916 23.9139 69.099 24.0572 69.0412C27.3344 67.5865 19.6492 68.3428 19.8881 66.7105C16.7702 67.3592 14.0704 66.8097 13.5209 66.6814C13.1784 66.1939 12.5771 65.9417 12.0276 65.7847C11.3308 65.5823 10.61 65.4954 9.89325 65.3797C8.87386 65.173 7.59562 64.9953 5.99486 64.9002C2.98845 64.7598 1.00938 65.0244 0.169181 65.173C0.141307 65.1771 0.117415 65.1648 0.105469 65.1442C0.113433 65.1028 0.125379 65.0614 0.141307 65.0285C0.149271 65.0118 0.153253 64.9953 0.165199 64.9789C0.328462 64.6151 0.698788 64.4127 1.10495 64.3011C1.13283 64.2929 1.1607 64.2845 1.18858 64.2762C1.24034 64.2639 1.29211 64.2515 1.33989 64.2433C1.64651 64.1854 1.94914 64.1646 2.18009 64.1605C11.3507 63.8877 20.5133 63.6316 29.6798 63.3961C29.8948 63.392 30.1059 63.3877 30.317 63.3836C34.717 63.2679 39.1172 63.1563 43.5174 63.0529C68.0663 62.4621 92.5996 61.9993 117.133 61.6645C141.674 61.3257 166.211 61.1231 190.752 61.0362C193.305 61.028 196.024 61.8132 198.035 63.4993C198.509 63.8962 199.305 64.7639 199.07 65.5203Z" fill="#1B2638"></path><path d="M0.195312 54.2092H30.4466V45.9687H8.1673V31.3803H27.3885V23.1399H8.1673V9.63446H30.4466V1.49316H0.195312V54.2092Z" fill="#1B2638"></path><path d="M44.5468 0.249023H36.9531V54.209H44.5468V0.249023Z" fill="#1B2638"></path><path d="M69.6059 13.7217C58.9859 13.7217 50.4805 22.5532 50.4805 34.5873C50.4805 46.5887 58.99 55.4532 69.7335 55.4532C74.5237 55.4532 80.5407 53.6223 84.67 48.9111L79.5331 43.613C76.5068 46.5887 72.7916 47.7333 69.8926 47.7333C64.1905 47.7333 59.4957 43.6793 58.2016 37.7571H86.4659V37.724L86.5933 37.7571C87.0672 36.3852 87.3498 34.8809 87.3498 32.984C87.3459 22.9458 80.477 13.7217 69.6059 13.7217ZM58.1059 31.5457C59.2409 25.5287 63.872 21.4084 69.6379 21.4084C75.6268 21.4084 79.1868 25.8881 79.9433 31.5457H58.1059Z" fill="#1B2638"></path><path d="M142.59 13.7217C131.97 13.7217 123.465 22.5532 123.465 34.5873C123.465 46.5887 131.974 55.4532 142.718 55.4532C147.508 55.4532 153.525 53.6223 157.654 48.9111L152.518 43.613C149.491 46.5887 145.776 47.7333 142.877 47.7333C137.175 47.7333 132.48 43.6793 131.186 37.7571H159.45V37.724L159.578 37.7571C160.052 36.3852 160.334 34.8809 160.334 32.984C160.33 22.9458 153.461 13.7217 142.59 13.7217ZM131.086 31.5457C132.221 25.5287 136.852 21.4084 142.618 21.4084C148.607 21.4084 152.167 25.8881 152.924 31.5457H131.086Z" fill="#1B2638"></path><path d="M185.337 13.9854C180.423 13.9854 176.39 15.9814 173.646 19.5438L173.3 14.9648H166.18V54.2084H173.773V32.983C173.773 25.3624 177.333 21.6018 182.912 21.6018C188.364 21.6018 191.609 24.6435 191.609 32.983V54.2084H199.203V32.983C199.203 18.1056 192.808 13.9854 185.337 13.9854Z" fill="#1B2638"></path><path d="M123.695 14.9658H115.121L105.449 38.1209L95.8365 14.9658H87.3945L105.322 55.5195H105.7L123.695 14.9658Z" fill="#1B2638"></path></g><defs><clipPath id="clip0_3226_2261"><rect width="200" height="69.3333" fill="white" transform="translate(0.105469 0.249023)"></rect></clipPath></defs></svg>