<svg xmlns="http://www.w3.org/2000/svg" width="201" height="59" viewBox="0 0 201 59" fill="none"><g clip-path="url(#clip0_3226_2213)"><path d="M22.1955 9.77637V25.7669H7.50497V9.77637H0.535156V47.9481H7.50685V32.4764H22.1936V47.9481H29.1672V9.77637H22.1955ZM51.4823 35.6103C51.4823 37.1403 50.8745 38.6077 49.7927 39.6895C48.7108 40.7714 47.2435 41.3792 45.7135 41.3792C44.1835 41.3792 42.7161 40.7714 41.6343 39.6895C40.5524 38.6077 39.9446 37.1403 39.9446 35.6103V19.2594H33.3314V35.6103C33.3314 38.891 34.6346 42.0373 36.9544 44.3571C39.2742 46.6769 42.4205 47.9801 45.7012 47.9801C48.9819 47.9801 52.1282 46.6769 54.448 44.3571C56.7678 42.0373 58.071 38.891 58.071 35.6103V19.2594H51.4823V35.6103ZM100.484 20.9443C100.484 17.5915 102.701 16.5292 105.129 16.5292C107.088 16.5292 109.673 18.0198 111.365 19.8273L115.696 14.7217C113.533 11.7971 109.148 9.77637 105.558 9.77637C98.3823 9.77637 93.1936 13.9783 93.1936 20.9443C93.1936 33.8688 108.99 29.7669 108.99 37.0009C108.99 39.2311 106.824 41.2009 104.345 41.2009C100.433 41.2009 99.1653 39.2896 97.3691 37.2669L92.5616 42.2651C95.637 46.0386 99.4295 47.9556 103.971 47.9556C110.788 47.9556 116.271 43.7028 116.271 37.0537C116.271 22.7066 100.473 27.165 100.473 20.9443M198.209 41.85C194.301 41.85 193.19 40.1594 193.19 37.5707V26.1084H199.265V20.3009H193.19V12.6386L186.484 15.6481V38.9952C186.484 44.9669 190.605 47.9764 196.254 47.9764C197.141 47.9915 198.028 47.9198 198.899 47.765L200.535 41.7424C199.797 41.7934 198.95 41.8443 198.209 41.8443M76.6559 19.45C73.3804 19.45 71.0936 20.4009 68.8823 22.5688V10.0047H62.2597V33.2933C62.2597 42.0103 68.5616 47.9839 75.6446 47.9839C83.5012 47.9839 90.4125 41.9047 90.4125 33.7198C90.4125 25.6367 84.0521 19.4556 76.6559 19.4556M76.6144 41.3179C75.6274 41.3179 74.65 41.1235 73.7381 40.7458C72.8262 40.368 71.9977 39.8144 71.2998 39.1165C70.6018 38.4186 70.0482 37.59 69.6705 36.6781C69.2928 35.7662 69.0984 34.7889 69.0984 33.8018C69.0984 32.8148 69.2928 31.8375 69.6705 30.9256C70.0482 30.0137 70.6018 29.1851 71.2998 28.4872C71.9977 27.7893 72.8262 27.2356 73.7381 26.8579C74.65 26.4802 75.6274 26.2858 76.6144 26.2858C78.6078 26.2858 80.5195 27.0777 81.929 28.4872C83.3386 29.8967 84.1304 31.8085 84.1304 33.8018C84.1304 35.7952 83.3386 37.707 81.929 39.1165C80.5195 40.526 78.6078 41.3179 76.6144 41.3179ZM148.58 33.3726C148.58 25.1726 141.684 19.1084 133.813 19.1084C126.731 19.1084 120.428 25.0801 120.428 33.799V57.1009H127.05V44.5198C129.258 46.6839 131.548 47.6386 134.82 47.6386C142.216 47.6386 148.58 41.4575 148.58 33.3726ZM142.309 33.2896C142.309 35.283 141.517 37.1947 140.107 38.6042C138.698 40.0137 136.786 40.8056 134.793 40.8056C132.799 40.8056 130.888 40.0137 129.478 38.6042C128.069 37.1947 127.277 35.283 127.277 33.2896C127.277 31.2962 128.069 29.3845 129.478 27.9749C130.888 26.5654 132.799 25.7735 134.793 25.7735C136.786 25.7735 138.698 26.5654 140.107 27.9749C141.517 29.3845 142.309 31.2962 142.309 33.2896Z" fill="#33475B"></path><path d="M169.981 18.7877V12.133C170.86 11.722 171.605 11.0697 172.128 10.252C172.651 9.43425 172.931 8.4848 172.936 7.51411V7.36128C172.936 4.53109 170.641 2.23675 167.811 2.23675H167.658C166.299 2.23675 164.996 2.77665 164.035 3.73769C163.074 4.69872 162.534 6.00217 162.534 7.36128V7.51411C162.538 8.4848 162.818 9.43425 163.341 10.252C163.865 11.0697 164.609 11.722 165.489 12.133V18.7877C162.961 19.1747 160.581 20.2226 158.589 21.8254L140.338 7.61033C140.468 7.14052 140.536 6.6575 140.543 6.1726C140.546 5.03053 140.209 3.91346 139.576 2.96267C138.944 2.01189 138.043 1.27011 136.989 0.831165C135.934 0.39222 134.774 0.275827 133.653 0.496711C132.533 0.717595 131.503 1.26583 130.694 2.07207C129.885 2.87832 129.333 3.90634 129.109 5.02612C128.884 6.14589 128.997 7.30711 129.432 8.36288C129.868 9.41866 130.607 10.3216 131.555 10.9574C132.504 11.5932 133.62 11.9334 134.762 11.9349C135.761 11.9302 136.742 11.6634 137.606 11.1613L155.577 25.1462C153.963 27.5852 153.12 30.454 153.16 33.3786C153.2 36.3033 154.12 39.1482 155.8 41.5424L150.334 47.0103C149.892 46.869 149.432 46.794 148.968 46.7877C148.03 46.7884 147.114 47.0671 146.335 47.5884C145.556 48.1096 144.949 48.8502 144.59 49.7164C144.232 50.5827 144.138 51.5357 144.321 52.4551C144.504 53.3746 144.956 54.2191 145.619 54.882C146.282 55.5448 147.126 55.9963 148.046 56.1794C148.965 56.3625 149.918 56.2689 150.784 55.9105C151.651 55.5521 152.391 54.945 152.912 54.1658C153.434 53.3866 153.712 52.4704 153.713 51.533C153.707 51.0691 153.632 50.6087 153.49 50.1669L158.898 44.7575C160.661 46.1151 162.712 47.051 164.893 47.4936C167.074 47.9362 169.327 47.8737 171.48 47.3109C173.633 46.7481 175.629 45.6999 177.314 44.2467C179 42.7935 180.33 40.9738 181.204 38.927C182.077 36.8802 182.471 34.6606 182.354 32.4383C182.237 30.216 181.613 28.0499 180.53 26.1059C179.447 24.162 177.933 22.4918 176.104 21.2233C174.276 19.9548 172.181 19.1216 169.981 18.7877ZM167.739 40.6745C166.74 40.702 165.745 40.5289 164.814 40.1654C163.883 39.802 163.034 39.2555 162.317 38.5584C161.6 37.8613 161.031 37.0276 160.642 36.1066C160.253 35.1856 160.053 34.1959 160.053 33.1962C160.053 32.1964 160.253 31.2068 160.642 30.2858C161.031 29.3648 161.6 28.5311 162.317 27.834C163.034 27.1368 163.883 26.5904 164.814 26.2269C165.745 25.8635 166.74 25.6904 167.739 25.7179C169.676 25.7857 171.511 26.6026 172.858 27.9965C174.205 29.3904 174.958 31.2525 174.959 33.1907C174.96 35.1288 174.209 36.9917 172.863 38.3869C171.518 39.7822 169.684 40.6009 167.747 40.6707" fill="#FF7A59"></path></g><defs><clipPath id="clip0_3226_2213"><rect width="200" height="58.4906" fill="white" transform="translate(0.535156 0.391602)"></rect></clipPath></defs></svg>