<svg xmlns="http://www.w3.org/2000/svg" width="200" height="33" viewBox="0 0 200 33" fill="none"><g clip-path="url(#clip0_3226_2201)"><path d="M0.183594 31.9035V0.894375H6.35332L19.7707 21.1237V0.894375H26.3763V31.9035H20.1836L6.76616 11.6742V31.9035H0.183594ZM32.523 31.9035V0.894375H52.7524V6.60538H39.335V13.4173H51.6515V19.1283H39.335V26.376H53.1882V31.6513L32.523 31.9035ZM65.9405 31.9035V6.39896H56.6974V0.894375H81.5597V6.60538H72.3166V31.9035H65.9405ZM85.7341 30.3668V26.8577C88.601 28.188 91.6744 28.8302 94.7478 28.8302C96.7203 29.0595 98.7157 28.3944 100.252 27.4999C101.583 26.6283 102.225 25.0916 102.225 23.532C102.225 22.4311 101.789 21.3302 100.895 20.4586C99.5643 19.3577 98.0276 18.4861 96.4909 18.0503L93.1882 16.7201C90.9863 16.0549 89.0139 14.7476 87.2478 13.2109C86.1469 11.8806 85.4818 10.3439 85.4818 8.6008C85.4818 6.19254 86.5827 3.9907 88.3487 2.43107C90.757 0.894375 93.4175 0.0228152 96.2616 0.229237C97.7983 0.229237 99.1285 0.458595 100.665 0.665017C101.996 0.894375 103.303 1.33015 104.404 1.99529V5.50447C101.996 4.40355 99.1286 3.73841 96.4909 3.53199C91.8808 3.53199 89.4496 5.06869 89.4496 8.14208C89.4496 9.243 89.8854 10.1146 90.7799 10.7797C92.1102 11.8806 93.6469 12.5457 95.1836 13.188L98.4863 14.5182C100.688 15.1834 102.89 16.4907 104.656 18.2568C105.757 19.587 106.422 21.3302 106.422 23.3256C106.651 25.7338 105.551 28.165 103.555 29.7017C101.147 31.4678 98.2799 32.11 95.413 32.11C94.312 32.11 93.2111 32.11 92.1102 31.8806C91.0093 31.6513 89.9084 31.4448 88.8075 31.2155C87.2937 31.2384 86.3992 30.8026 85.7341 30.3668ZM111.262 17.821V0.894375H115.229V17.821C115.229 21.5595 115.895 24.4265 117.202 26.1696C120.275 29.4724 125.551 29.9081 128.853 26.8347L129.518 26.1696C130.849 24.4035 131.491 21.5595 131.491 17.821V0.894375H135.459V18.0503C135.459 23.1191 134.358 26.6283 132.385 29.0595C130.413 31.4678 127.317 32.5687 123.372 32.5687C119.427 32.5687 116.33 31.4678 114.358 29.0595C112.362 26.6283 111.262 22.8898 111.262 17.821ZM142.064 31.9035V0.894375H146.032V31.9035H142.064ZM161.193 31.9035V4.19713H151.514V0.894375H175.046V4.19713H165.138V31.6971H161.17V31.9035H161.193ZM180.344 31.9035V0.894375H199.473V4.19713H184.289V14.3118H198.142V17.6146H184.289V28.165H199.908V31.4678H180.321L180.344 31.9035Z" fill="#403C38"></path></g><defs><clipPath id="clip0_3226_2201"><rect width="200" height="32.5688" fill="white"></rect></clipPath></defs></svg>