<svg xmlns="http://www.w3.org/2000/svg" width="201" height="36" viewBox="0 0 201 36" fill="none"><g clip-path="url(#clip0_3226_2203)"><path d="M30.2159 17.7232C30.2159 25.7489 23.7098 32.255 15.6841 32.255C7.65846 32.255 1.15234 25.7489 1.15234 17.7232C1.15234 9.69751 7.65846 3.19141 15.6841 3.19141C23.7098 3.19141 30.2159 9.69751 30.2159 17.7232Z" fill="url(#paint0_linear_3226_2203)"></path><path d="M17.942 25.9136C18.5503 22.5883 21.6493 20.0635 25.2409 20.0635C29.1279 20.0635 32.3053 23.0206 32.5276 26.7494H33.828C35.9621 26.7494 37.6922 28.4332 37.6922 30.5103C37.6922 32.5873 35.9621 34.2711 33.828 34.2711H17.942C15.5707 34.2711 13.6484 32.4002 13.6484 30.0924C13.6484 27.7846 15.5707 25.9136 17.942 25.9136Z" fill="url(#paint1_radial_3226_2203)"></path><path d="M52.5951 12.4682C52.1455 11.9062 51.5836 11.4426 50.9093 11.0774C50.263 10.684 49.4624 10.4873 48.5071 10.4873C47.6081 10.4873 46.8213 10.684 46.1471 11.0774C45.5009 11.4426 45.1777 11.9904 45.1777 12.7209C45.1777 13.311 45.3603 13.7886 45.7256 14.1538C46.1189 14.5191 46.5685 14.8141 47.0742 15.0389C47.6081 15.2637 48.1699 15.4322 48.76 15.5445C49.3499 15.657 49.8557 15.7554 50.2771 15.8396C51.0919 16.0362 51.8505 16.275 52.5529 16.556C53.2834 16.837 53.9015 17.2022 54.4072 17.6518C54.9411 18.1013 55.3484 18.6491 55.6294 19.2954C55.9385 19.9416 56.093 20.7283 56.093 21.6555C56.093 22.7793 55.8542 23.7486 55.3765 24.5633C54.8989 25.35 54.2808 25.9962 53.5222 26.5019C52.7636 27.0077 51.8927 27.373 50.9093 27.5977C49.954 27.8225 48.9847 27.9348 48.0014 27.9348C46.3437 27.9348 44.8827 27.682 43.6185 27.1762C42.3822 26.6706 41.2725 25.7433 40.2891 24.3948L43.1549 22.0347C43.773 22.6529 44.4613 23.2007 45.2199 23.6783C45.9785 24.1559 46.9057 24.3948 48.0014 24.3948C48.479 24.3948 48.9566 24.3526 49.4343 24.2684C49.94 24.1559 50.3755 24.0015 50.7408 23.8048C51.1341 23.58 51.4432 23.3131 51.6679 23.004C51.9208 22.6668 52.0472 22.2876 52.0472 21.8662C52.0472 21.3042 51.8646 20.8406 51.4993 20.4754C51.1622 20.1101 50.7408 19.8292 50.235 19.6325C49.7574 19.4078 49.2376 19.2392 48.6756 19.1268C48.1418 18.9863 47.6643 18.8739 47.2428 18.7897C46.428 18.593 45.6554 18.3683 44.9249 18.1154C44.1944 17.8625 43.5482 17.5253 42.9862 17.1039C42.4244 16.6825 41.9749 16.1487 41.6377 15.5025C41.3005 14.8562 41.1319 14.0555 41.1319 13.1003C41.1319 12.0607 41.3426 11.1616 41.7641 10.4031C42.2137 9.61637 42.7896 8.97016 43.492 8.46445C44.2225 7.95872 45.0373 7.57942 45.9363 7.32655C46.8635 7.0737 47.7907 6.94727 48.7178 6.94727C50.0664 6.94727 51.3588 7.20013 52.5951 7.70586C53.8312 8.21158 54.8146 9.05446 55.5451 10.2345L52.5951 12.4682Z" fill="#333537"></path><path d="M78.3997 27.4293H74.6067V24.3528H74.5224C74.0448 25.4204 73.2159 26.2913 72.0359 26.9657C70.8559 27.6119 69.4932 27.935 67.948 27.935C66.9646 27.935 66.0375 27.7804 65.1665 27.4715C64.2955 27.1905 63.5229 26.741 62.8486 26.1228C62.2024 25.5047 61.6826 24.718 61.2893 23.7627C60.8959 22.7794 60.6992 21.6275 60.6992 20.307V7.45312H64.4922V19.2534C64.4922 20.1805 64.6187 20.9813 64.8715 21.6556C65.1244 22.3017 65.4615 22.8356 65.8829 23.257C66.3044 23.6504 66.782 23.9453 67.3158 24.1421C67.8777 24.3106 68.4538 24.3949 69.0437 24.3949C69.8304 24.3949 70.5609 24.2685 71.2352 24.0156C71.9095 23.7627 72.4995 23.3694 73.0052 22.8356C73.5109 22.2736 73.9042 21.5712 74.1852 20.7284C74.4662 19.8856 74.6067 18.8882 74.6067 17.7362V7.45312H78.3997V27.4293Z" fill="#333537"></path><path d="M84.1172 7.45299H87.9101V10.5295H87.9944C88.4721 9.46184 89.3008 8.60493 90.4809 7.95872C91.6609 7.28441 93.0235 6.94727 94.5688 6.94727C95.5241 6.94727 96.4372 7.10179 97.3081 7.41085C98.2072 7.6918 98.9798 8.14134 99.626 8.75945C100.3 9.37756 100.834 10.1783 101.228 11.1616C101.621 12.1169 101.818 13.2548 101.818 14.5753V27.4291H98.0246V15.6289C98.0246 14.7017 97.8982 13.915 97.6453 13.2688C97.3925 12.5945 97.0553 12.0607 96.6339 11.6674C96.2124 11.2459 95.7208 10.9509 95.1588 10.7823C94.6251 10.5857 94.0631 10.4873 93.473 10.4873C92.6864 10.4873 91.9559 10.6138 91.2816 10.8666C90.6074 11.1195 90.0173 11.5268 89.5116 12.0888C89.0058 12.6226 88.6125 13.311 88.3315 14.1538C88.0506 14.9967 87.9101 15.9942 87.9101 17.1461V27.4291H84.1172V7.45299Z" fill="#333537"></path><path d="M118.158 12.4682C117.708 11.9062 117.146 11.4426 116.471 11.0774C115.826 10.684 115.024 10.4873 114.069 10.4873C113.171 10.4873 112.384 10.684 111.71 11.0774C111.064 11.4426 110.74 11.9904 110.74 12.7209C110.74 13.311 110.923 13.7886 111.288 14.1538C111.681 14.5191 112.13 14.8141 112.636 15.0389C113.171 15.2637 113.733 15.4322 114.323 15.5445C114.913 15.657 115.418 15.7554 115.84 15.8396C116.654 16.0362 117.412 16.275 118.115 16.556C118.846 16.837 119.464 17.2022 119.97 17.6518C120.503 18.1013 120.911 18.6491 121.192 19.2954C121.501 19.9416 121.655 20.7283 121.655 21.6555C121.655 22.7793 121.417 23.7486 120.939 24.5633C120.462 25.35 119.843 25.9962 119.085 26.5019C118.326 27.0077 117.455 27.373 116.471 27.5977C115.516 27.8225 114.547 27.9348 113.564 27.9348C111.906 27.9348 110.445 27.682 109.181 27.1762C107.945 26.6706 106.835 25.7433 105.852 24.3948L108.717 22.0347C109.335 22.6529 110.023 23.2007 110.782 23.6783C111.541 24.1559 112.468 24.3948 113.564 24.3948C114.042 24.3948 114.52 24.3526 114.997 24.2684C115.502 24.1559 115.938 24.0015 116.303 23.8048C116.697 23.58 117.006 23.3131 117.23 23.004C117.483 22.6668 117.609 22.2876 117.609 21.8662C117.609 21.3042 117.427 20.8406 117.062 20.4754C116.725 20.1101 116.303 19.8292 115.797 19.6325C115.32 19.4078 114.8 19.2392 114.239 19.1268C113.704 18.9863 113.227 18.8739 112.805 18.7897C111.991 18.593 111.218 18.3683 110.488 18.1154C109.757 17.8625 109.111 17.5253 108.549 17.1039C107.987 16.6825 107.537 16.1487 107.2 15.5025C106.863 14.8562 106.694 14.0555 106.694 13.1003C106.694 12.0607 106.905 11.1616 107.327 10.4031C107.776 9.61637 108.352 8.97016 109.054 8.46445C109.785 7.95872 110.599 7.57942 111.499 7.32655C112.426 7.0737 113.353 6.94727 114.28 6.94727C115.629 6.94727 116.922 7.20013 118.158 7.70586C119.394 8.21158 120.377 9.05446 121.108 10.2345L118.158 12.4682Z" fill="#333537"></path><path d="M126.347 9.89733C127.414 8.91398 128.65 8.18348 130.055 7.70586C131.459 7.20013 132.865 6.94727 134.269 6.94727C135.73 6.94727 136.98 7.12989 138.02 7.49513C139.088 7.86038 139.959 8.35206 140.633 8.97016C141.307 9.58827 141.799 10.3047 142.108 11.1195C142.445 11.9062 142.613 12.735 142.613 13.606V23.8048C142.613 24.5072 142.627 25.1534 142.656 25.7433C142.684 26.3334 142.726 26.8953 142.783 27.4291H139.411C139.327 26.4177 139.284 25.4062 139.284 24.3948H139.2C138.357 25.6872 137.36 26.6003 136.208 27.1342C135.056 27.6679 133.721 27.9348 132.204 27.9348C131.277 27.9348 130.392 27.8084 129.549 27.5556C128.706 27.3027 127.962 26.9235 127.316 26.4177C126.697 25.912 126.206 25.2938 125.841 24.5633C125.475 23.8048 125.293 22.9338 125.293 21.9504C125.293 20.658 125.574 19.5763 126.136 18.7054C126.726 17.8344 127.513 17.132 128.495 16.5982C129.507 16.0362 130.673 15.6429 131.994 15.4182C133.342 15.1653 134.775 15.0389 136.292 15.0389H139.073V14.196C139.073 13.6902 138.975 13.1845 138.778 12.6789C138.581 12.1731 138.286 11.7236 137.893 11.3302C137.501 10.9088 137.009 10.5857 136.419 10.3609C135.828 10.1081 135.126 9.98162 134.312 9.98162C133.58 9.98162 132.935 10.0519 132.373 10.1923C131.838 10.3328 131.348 10.5154 130.897 10.7402C130.448 10.9369 130.041 11.1757 129.675 11.4567C129.31 11.7377 128.959 12.0045 128.622 12.2573L126.347 9.89733ZM137.05 17.8204C136.152 17.8204 135.224 17.8766 134.269 17.9889C133.342 18.0732 132.485 18.2558 131.698 18.5368C130.94 18.8178 130.307 19.2111 129.802 19.7168C129.325 20.2226 129.085 20.8687 129.085 21.6555C129.085 22.8074 129.465 23.6362 130.223 24.1419C131.01 24.6476 132.063 24.9005 133.384 24.9005C134.424 24.9005 135.308 24.732 136.039 24.3948C136.769 24.0296 137.36 23.566 137.809 23.004C138.259 22.4421 138.581 21.824 138.778 21.1497C138.975 20.4473 139.073 19.759 139.073 19.0847V17.8204H137.05Z" fill="#333537"></path><path d="M148.117 7.45299H151.657V10.5716H151.741C151.825 10.2907 152.036 9.93947 152.373 9.51803C152.739 9.0966 153.188 8.70325 153.722 8.33801C154.284 7.94466 154.93 7.62157 155.66 7.36871C156.419 7.08775 157.248 6.94727 158.147 6.94727C159.636 6.94727 160.887 7.25633 161.898 7.87444C162.91 8.49253 163.738 9.4197 164.385 10.6559C165.031 9.4197 165.943 8.49253 167.124 7.87444C168.304 7.25633 169.498 6.94727 170.706 6.94727C172.252 6.94727 173.516 7.20013 174.499 7.70586C175.482 8.21158 176.255 8.88588 176.817 9.72875C177.378 10.5435 177.758 11.4848 177.954 12.5524C178.179 13.592 178.292 14.6736 178.292 15.7974V27.4291H174.499V16.3032C174.499 15.5445 174.443 14.8141 174.33 14.1118C174.246 13.4094 174.049 12.7912 173.74 12.2573C173.431 11.7236 172.996 11.3021 172.434 10.9931C171.872 10.6559 171.127 10.4873 170.2 10.4873C168.374 10.4873 167.068 11.0493 166.281 12.1731C165.494 13.2969 165.101 14.7439 165.101 16.5139V27.4291H161.308V16.9774C161.308 16.0222 161.252 15.1512 161.139 14.3645C161.055 13.5779 160.858 12.9036 160.549 12.3417C160.268 11.7516 159.847 11.3021 159.285 10.9931C158.751 10.6559 158.021 10.4873 157.093 10.4873C156.419 10.4873 155.759 10.6278 155.113 10.9088C154.494 11.1616 153.947 11.555 153.469 12.0888C152.992 12.6226 152.612 13.311 152.331 14.1538C152.051 14.9686 151.91 15.938 151.91 17.0618V27.4291H148.117V7.45299Z" fill="#333537"></path><path d="M184.089 9.89733C185.156 8.91398 186.393 8.18348 187.798 7.70586C189.202 7.20013 190.608 6.94727 192.012 6.94727C193.473 6.94727 194.724 7.12989 195.763 7.49513C196.831 7.86038 197.702 8.35206 198.376 8.97016C199.05 9.58827 199.542 10.3047 199.85 11.1195C200.188 11.9062 200.356 12.735 200.356 13.606V23.8048C200.356 24.5072 200.371 25.1534 200.399 25.7433C200.426 26.3334 200.469 26.8953 200.525 27.4291H197.154C197.069 26.4177 197.027 25.4062 197.027 24.3948H196.943C196.1 25.6872 195.103 26.6003 193.951 27.1342C192.799 27.6679 191.465 27.9348 189.947 27.9348C189.02 27.9348 188.135 27.8084 187.292 27.5556C186.449 27.3027 185.705 26.9235 185.058 26.4177C184.441 25.912 183.949 25.2938 183.584 24.5633C183.218 23.8048 183.035 22.9338 183.035 21.9504C183.035 20.658 183.316 19.5763 183.879 18.7054C184.468 17.8344 185.255 17.132 186.238 16.5982C187.25 16.0362 188.415 15.6429 189.737 15.4182C191.085 15.1653 192.518 15.0389 194.035 15.0389H196.817V14.196C196.817 13.6902 196.718 13.1845 196.521 12.6789C196.325 12.1731 196.03 11.7236 195.636 11.3302C195.243 10.9088 194.752 10.5857 194.162 10.3609C193.572 10.1081 192.869 9.98162 192.055 9.98162C191.324 9.98162 190.678 10.0519 190.116 10.1923C189.582 10.3328 189.09 10.5154 188.641 10.7402C188.191 10.9369 187.784 11.1757 187.419 11.4567C187.054 11.7377 186.702 12.0045 186.365 12.2573L184.089 9.89733ZM194.794 17.8204C193.894 17.8204 192.967 17.8766 192.012 17.9889C191.085 18.0732 190.229 18.2558 189.442 18.5368C188.683 18.8178 188.05 19.2111 187.544 19.7168C187.067 20.2226 186.829 20.8687 186.829 21.6555C186.829 22.8074 187.208 23.6362 187.966 24.1419C188.753 24.6476 189.807 24.9005 191.127 24.9005C192.166 24.9005 193.052 24.732 193.783 24.3948C194.513 24.0296 195.103 23.566 195.552 23.004C196.002 22.4421 196.325 21.824 196.521 21.1497C196.718 20.4473 196.817 19.759 196.817 19.0847V17.8204H194.794Z" fill="#333537"></path></g><defs><linearGradient id="paint0_linear_3226_2203" x1="4.08963" y1="4.58275" x2="14.3702" y2="20.274" gradientUnits="userSpaceOnUse"><stop stop-color="#F59549"></stop><stop offset="1" stop-color="#F06351"></stop></linearGradient><radialGradient id="paint1_radial_3226_2203" cx="0" cy="0" r="1" gradientUnits="userSpaceOnUse" gradientTransform="translate(22.9381 23.3422) rotate(65.7723) scale(11.9846 20.2815)"><stop stop-color="white"></stop><stop offset="1" stop-color="#CBDDFF"></stop></radialGradient><clipPath id="clip0_3226_2203"><rect width="200" height="34.9727" fill="white" transform="translate(0.535156 0.391602)"></rect></clipPath></defs></svg>