<svg xmlns="http://www.w3.org/2000/svg" width="201" height="36" viewBox="0 0 201 36" fill="none"><path d="M19.755 7.58594H5.96879C5.58546 7.58594 5.21783 7.73739 4.94677 8.00699C4.67572 8.27658 4.52344 8.64223 4.52344 9.02349C4.52344 9.40476 4.67572 9.77041 4.94677 10.04C5.21783 10.3096 5.58546 10.4611 5.96879 10.4611H11.4181V26.8125C11.4181 27.1938 11.5704 27.5594 11.8414 27.829C12.1125 28.0986 12.4801 28.2501 12.8634 28.2501C13.2468 28.2501 13.6144 28.0986 13.8855 27.829C14.1565 27.5594 14.3088 27.1938 14.3088 26.8125V10.4611H19.755C20.1383 10.4611 20.506 10.3096 20.777 10.04C21.0481 9.77041 21.2004 9.40476 21.2004 9.02349C21.2004 8.64223 21.0481 8.27658 20.777 8.00699C20.506 7.73739 20.1383 7.58594 19.755 7.58594Z" fill="#0C1927"></path><path d="M46.0999 7.58594C45.91 7.58554 45.7219 7.62245 45.5464 7.69455C45.3708 7.76665 45.2113 7.87252 45.077 8.00609C44.9427 8.13966 44.8363 8.2983 44.7638 8.47289C44.6913 8.64749 44.6542 8.8346 44.6546 9.0235V16.4804H32.5782V9.0235C32.5782 8.64223 32.4259 8.27659 32.1549 8.00699C31.8838 7.7374 31.5162 7.58594 31.1329 7.58594C30.7495 7.58594 30.3819 7.7374 30.1108 8.00699C29.8398 8.27659 29.6875 8.64223 29.6875 9.0235V26.8125C29.6875 27.1938 29.8398 27.5594 30.1108 27.829C30.3819 28.0986 30.7495 28.2501 31.1329 28.2501C31.5162 28.2501 31.8838 28.0986 32.1549 27.829C32.4259 27.5594 32.5782 27.1938 32.5782 26.8125V19.3556H44.6546V26.8125C44.6546 27.0013 44.692 27.1882 44.7646 27.3626C44.8372 27.5371 44.9437 27.6955 45.0779 27.829C45.2121 27.9625 45.3715 28.0684 45.5468 28.1406C45.7222 28.2129 45.9101 28.2501 46.0999 28.2501C46.2898 28.2501 46.4777 28.2129 46.6531 28.1406C46.8284 28.0684 46.9878 27.9625 47.122 27.829C47.2562 27.6955 47.3626 27.5371 47.4353 27.3626C47.5079 27.1882 47.5453 27.0013 47.5453 26.8125V9.0235C47.5453 8.64223 47.393 8.27659 47.122 8.00699C46.8509 7.7374 46.4833 7.58594 46.0999 7.58594Z" fill="#0C1927"></path><path d="M59.9844 7.58594C59.7945 7.58554 59.6064 7.62245 59.4308 7.69455C59.2553 7.76665 59.0958 7.87252 58.9615 8.00609C58.8272 8.13966 58.7208 8.2983 58.6483 8.47289C58.5758 8.64749 58.5387 8.8346 58.5391 9.0235V26.8125C58.5391 27.1938 58.6913 27.5594 58.9624 27.829C59.2335 28.0986 59.6011 28.2501 59.9844 28.2501C60.3678 28.2501 60.7354 28.0986 61.0064 27.829C61.2775 27.5594 61.4298 27.1938 61.4298 26.8125V9.0235C61.4298 8.64223 61.2775 8.27659 61.0064 8.00699C60.7354 7.7374 60.3678 7.58594 59.9844 7.58594Z" fill="#0C1927"></path><path d="M102.797 7.58594C102.414 7.58594 102.046 7.7374 101.775 8.00699C101.504 8.27659 101.352 8.64223 101.352 9.0235V26.8125C101.352 27.1938 101.504 27.5594 101.775 27.829C102.046 28.0986 102.414 28.2501 102.797 28.2501C103.18 28.2501 103.548 28.0986 103.819 27.829C104.09 27.5594 104.242 27.1938 104.242 26.8125V9.0235C104.243 8.8346 104.206 8.64749 104.133 8.47289C104.061 8.2983 103.954 8.13966 103.82 8.00609C103.686 7.87252 103.526 7.76665 103.351 7.69455C103.175 7.62245 102.987 7.58554 102.797 7.58594Z" fill="#0C1927"></path><path d="M129.422 7.58594C129.039 7.58594 128.671 7.7374 128.4 8.00699C128.129 8.27659 127.977 8.64223 127.977 9.0235V26.8125C127.977 27.1938 128.129 27.5594 128.4 27.829C128.671 28.0986 129.039 28.2501 129.422 28.2501C129.805 28.2501 130.173 28.0986 130.444 27.829C130.715 27.5594 130.867 27.1938 130.867 26.8125V9.0235C130.868 8.8346 130.831 8.64749 130.758 8.47289C130.686 8.2983 130.579 8.13966 130.445 8.00609C130.311 7.87252 130.151 7.76665 129.976 7.69455C129.8 7.62245 129.612 7.58554 129.422 7.58594Z" fill="#0C1927"></path><path d="M165.617 7.58594C165.427 7.58594 165.239 7.62312 165.064 7.69537C164.889 7.76761 164.729 7.8735 164.595 8.00699C164.461 8.14048 164.355 8.29896 164.282 8.47337C164.209 8.64778 164.172 8.83472 164.172 9.0235V26.8125C164.172 27.1938 164.324 27.5594 164.595 27.829C164.866 28.0986 165.234 28.2501 165.617 28.2501C166.001 28.2501 166.368 28.0986 166.639 27.829C166.91 27.5594 167.063 27.1938 167.063 26.8125V9.0235C167.063 8.8346 167.026 8.64749 166.953 8.47289C166.881 8.2983 166.774 8.13966 166.64 8.00609C166.506 7.87252 166.346 7.76665 166.171 7.69455C165.995 7.62245 165.807 7.58554 165.617 7.58594Z" fill="#0C1927"></path><path d="M154.296 7.58594H143.277C143.087 7.58554 142.899 7.62245 142.724 7.69455C142.548 7.76665 142.389 7.87252 142.254 8.00609C142.12 8.13966 142.014 8.2983 141.941 8.47289C141.869 8.64749 141.832 8.8346 141.832 9.0235V26.8125C141.832 27.0013 141.869 27.1882 141.942 27.3626C142.015 27.5371 142.121 27.6955 142.255 27.829C142.39 27.9625 142.549 28.0684 142.724 28.1406C142.9 28.2129 143.088 28.2501 143.277 28.2501C143.467 28.2501 143.655 28.2129 143.83 28.1406C144.006 28.0684 144.165 27.9625 144.299 27.829C144.434 27.6955 144.54 27.5371 144.613 27.3626C144.685 27.1882 144.723 27.0013 144.723 26.8125V19.7777H153.22C153.603 19.7777 153.971 19.6262 154.242 19.3566C154.513 19.087 154.665 18.7214 154.665 18.3401C154.665 17.9588 154.513 17.5932 154.242 17.3236C153.971 17.054 153.603 16.9025 153.22 16.9025H144.723V10.4611H154.296C154.679 10.4611 155.047 10.3096 155.318 10.04C155.589 9.77041 155.741 9.40476 155.741 9.0235C155.741 8.64223 155.589 8.27659 155.318 8.00699C155.047 7.7374 154.679 7.58594 154.296 7.58594Z" fill="#0C1927"></path><path d="M88.8968 7.58594C88.7069 7.58554 88.5188 7.62245 88.3432 7.69455C88.1677 7.76665 88.0082 7.87252 87.8739 8.00609C87.7396 8.13966 87.6332 8.2983 87.5607 8.47289C87.4882 8.64749 87.4511 8.8346 87.4515 9.0235V22.8546L75.0368 8.09979C74.8465 7.87426 74.5911 7.71229 74.3053 7.63579C74.0194 7.55928 73.7168 7.57192 73.4384 7.67201C73.16 7.7721 72.9192 7.9548 72.7486 8.19541C72.578 8.43602 72.4857 8.72295 72.4844 9.01738V26.8125C72.4844 27.1938 72.6367 27.5594 72.9077 27.829C73.1788 28.0986 73.5464 28.2501 73.9297 28.2501C74.3131 28.2501 74.6807 28.0986 74.9517 27.829C75.2228 27.5594 75.3751 27.1938 75.3751 26.8125V12.9814L87.7867 27.7362C87.9767 27.9629 88.2323 28.126 88.5187 28.2032C88.8051 28.2804 89.1085 28.2681 89.3876 28.1678C89.6667 28.0676 89.9081 27.8844 90.0789 27.643C90.2496 27.4016 90.3416 27.1138 90.3422 26.8186V9.0235C90.3422 8.64223 90.1899 8.27659 89.9188 8.00699C89.6478 7.7374 89.2802 7.58594 88.8968 7.58594Z" fill="#0C1927"></path><path d="M192.585 23.6131C191.48 24.7127 190.072 25.4616 188.539 25.765C187.005 26.0685 185.416 25.913 183.972 25.3181C182.528 24.7232 181.293 23.7157 180.425 22.423C179.556 21.1302 179.093 19.6104 179.093 18.0556C179.093 16.5008 179.556 14.9809 180.425 13.6882C181.293 12.3954 182.528 11.3879 183.972 10.793C185.416 10.1981 187.005 10.0426 188.539 10.3461C190.072 10.6496 191.48 11.3985 192.585 12.498C192.86 12.7476 193.221 12.8821 193.593 12.8738C193.965 12.8654 194.319 12.7147 194.582 12.4531C194.845 12.1915 194.996 11.839 195.005 11.4691C195.013 11.0992 194.878 10.7403 194.627 10.4671C193.118 8.96528 191.194 7.94242 189.1 7.52786C187.007 7.11331 184.836 7.32569 182.863 8.13814C180.891 8.95059 179.205 10.3266 178.019 12.0922C176.832 13.8578 176.199 15.9336 176.199 18.0571C176.199 20.1806 176.832 22.2564 178.019 24.022C179.205 25.7876 180.891 27.1636 182.863 27.9761C184.836 28.7885 187.007 29.0009 189.1 28.5863C191.194 28.1718 193.118 27.1489 194.627 25.6471C194.888 25.3757 195.032 25.0135 195.028 24.6381C195.023 24.2627 194.872 23.9037 194.605 23.638C194.338 23.3723 193.978 23.221 193.6 23.2163C193.223 23.2116 192.858 23.3541 192.585 23.6131Z" fill="#0C1927"></path><path d="M116.916 7.88527C116.766 7.76967 116.595 7.68467 116.412 7.63516C116.228 7.58565 116.037 7.57259 115.849 7.59675C115.661 7.6209 115.479 7.68179 115.314 7.77591C115.15 7.87004 115.006 7.99555 114.89 8.14525L107.995 17.0398C107.801 17.2915 107.695 17.6001 107.695 17.9176C107.695 18.2351 107.801 18.5437 107.995 18.7954L114.89 27.6899C115.126 27.985 115.469 28.1759 115.846 28.2216C116.222 28.2673 116.601 28.164 116.902 27.9341C117.202 27.7042 117.4 27.366 117.452 26.9925C117.505 26.619 117.407 26.24 117.181 25.9373L110.966 17.9176L117.181 9.90091C117.415 9.59872 117.518 9.21661 117.468 8.83862C117.419 8.46063 117.22 8.11771 116.916 7.88527Z" fill="#0C1927"></path></svg>